<svg width="101" height="14" viewBox="0 0 101 14" fill="none" xmlns="http://www.w3.org/2000/svg">
<mask id="mask0_2_866" style="mask-type:luminance" maskUnits="userSpaceOnUse" x="0" y="0" width="101" height="14">
<path d="M100.357 0.101624H0.124046V13.9061H100.357V0.101624Z" fill="white"/>
</mask>
<g mask="url(#mask0_2_866)">
<path fill-rule="evenodd" clip-rule="evenodd" d="M42.0824 9.48466C39.208 9.48466 37.1176 7.5093 37.1176 4.79315C37.1176 2.077 39.208 0.101624 42.1197 0.101624C43.6876 0.101624 45.0314 0.666017 45.89 1.72426L45.9646 1.83008L44.4341 3.24107L44.3221 3.13524C43.7622 2.46503 43.0156 2.14755 42.1944 2.14755C40.5892 2.14755 39.4693 3.24107 39.4693 4.82842C39.4693 6.4158 40.5892 7.5093 42.1944 7.5093C43.053 7.5093 43.7622 7.19179 44.3221 6.52162L44.4341 6.4158L45.9646 7.82674L45.89 7.93261C45.0314 8.99082 43.6876 9.55524 42.0824 9.55524V9.48466ZM20.0579 9.34361H15.317V0.242746H19.8339C22.0363 0.242746 23.3428 1.15989 23.3428 2.6767C23.3428 3.48801 22.9695 4.15823 22.3349 4.58152C23.2682 4.96955 23.7908 5.78086 23.7908 6.80383C23.7908 8.42646 22.4843 9.34361 20.0952 9.34361H20.0579ZM17.6314 7.54459H19.9085C21.2524 7.54459 21.4017 7.01546 21.4017 6.5922C21.4017 5.95725 20.9164 5.63977 19.9085 5.63977H17.6314V7.54459ZM17.6314 3.87603H19.5352C20.4685 3.87603 20.9538 3.55856 20.9538 2.95889C20.9538 2.74724 20.9538 2.07703 19.5352 2.07703H17.6314V3.87603ZM27.4491 9.34361H25.0974V0.242746H27.4491V9.34361ZM31.5554 9.34361H33.8699V2.18285H36.7442V0.242746H28.681V2.18285H31.5554V9.34361ZM46.3006 4.79315C46.3006 7.5093 48.4283 9.48466 51.34 9.48466C54.2517 9.48466 56.3795 7.5093 56.3795 4.79315C56.3795 2.077 54.2517 0.101624 51.34 0.101624C48.4283 0.101624 46.3006 2.077 46.3006 4.79315ZM48.6896 4.79315C48.6896 3.24107 49.8095 2.11228 51.34 2.11228C52.8705 2.11228 53.9904 3.24107 53.9904 4.79315C53.9904 6.34522 52.8705 7.47401 51.34 7.47401C49.8095 7.47401 48.6896 6.34522 48.6896 4.79315ZM59.8509 9.34361H57.4992V0.242746H59.8509V9.34361ZM67.8771 9.34361H69.7809V0.242746H67.466V5.32229L63.2478 0.242746H61.344V9.34361H63.6589V4.26405L67.8771 9.34361ZM73.4391 9.34361H71.087V0.242746H73.4391V9.34361ZM74.6707 8.42646C75.5296 9.0614 76.9851 9.48466 78.4039 9.48466V9.51995C81.2783 9.51995 82.3232 7.96785 82.3232 6.66272C82.3232 4.70461 80.4896 4.27156 79.0029 3.92056L78.9639 3.91128C77.9934 3.69963 77.1345 3.48799 77.1345 2.92359C77.1345 2.3592 77.6945 2.04173 78.7022 2.04173C79.4861 2.04173 80.3078 2.28865 81.0916 2.71195L81.2411 2.78249L81.9871 0.983491L81.8755 0.912938C81.0544 0.38382 79.8972 0.101624 78.7022 0.101624C76.3135 0.101624 74.783 1.23041 74.8202 2.95887C74.8202 4.95222 76.6544 5.38542 78.1411 5.73645L78.1801 5.74556C79.1506 5.95719 80.0089 6.16888 80.0089 6.73324C80.0089 7.43877 79.0383 7.54459 78.4411 7.54459C77.4334 7.54459 76.3135 7.22708 75.5668 6.66272L75.4174 6.55691L74.5963 8.35587L74.6707 8.42646ZM88.0719 9.34361H85.7575V2.18285H82.8832V0.242746H90.9462V2.18285H88.0719V9.34361ZM91.9918 1.97111C91.9918 2.14748 92.3273 2.28858 92.3273 2.28858C92.5139 2.28858 92.6634 2.14748 92.6634 1.97111C92.6634 1.79473 92.5139 1.65364 92.3273 1.65364C92.1406 1.65364 91.9918 1.79473 91.9918 1.97111ZM94.1939 2.28868C93.5223 2.28868 93.0745 1.86538 93.0745 1.26571C93.0745 0.666041 93.5595 0.242746 94.1939 0.242746C94.5672 0.242746 94.8661 0.383845 95.0528 0.595494L94.6794 0.948241C94.6794 0.948241 94.3805 0.701315 94.2317 0.701315C93.8956 0.701315 93.6339 0.948241 93.6339 1.26571C93.6339 1.58318 93.8956 1.8301 94.2317 1.8301C94.4184 1.8301 94.5672 1.75956 94.6794 1.61846L95.0528 1.90066C94.8661 2.14758 94.5672 2.28868 94.1939 2.28868ZM95.2394 1.26571C95.2394 1.86538 95.7244 2.28868 96.3966 2.28868C97.0682 2.28868 97.5538 1.86538 97.5538 1.26571C97.5538 0.666041 97.0682 0.242746 96.3966 0.242746C95.7244 0.242746 95.2394 0.666041 95.2394 1.26571ZM95.8366 1.26571C95.8366 0.948241 96.0605 0.701315 96.3966 0.701315C96.7699 0.701315 96.9938 0.948241 96.9938 1.26571C96.9938 1.58318 96.7321 1.8301 96.3966 1.8301C96.0605 1.8301 95.8366 1.58318 95.8366 1.26571ZM97.9271 2.18286V0.313308V0.278028H98.3748L99.0843 1.40681L99.7937 0.278028H100.241V2.25341H99.7565V1.23044L99.2337 2.04176H98.972L98.4499 1.26571V2.25341H97.9271V2.18286ZM15.0559 12.095C15.0559 12.083 15.056 12.071 15.0564 12.0591C15.0753 12.7116 15.6281 13.1885 16.3251 13.1885C16.6984 13.1885 16.997 13.0827 17.221 12.871L17.0716 12.7299C16.885 12.9415 16.6237 13.0121 16.3624 13.0121C15.8025 13.0121 15.3545 12.624 15.3545 12.0597C15.3545 11.4953 15.7651 11.1073 16.3624 11.1073C16.6237 11.1073 16.885 11.2131 17.0716 11.3894L17.221 11.2483C16.997 11.0367 16.6611 10.9309 16.3251 10.9309C15.5919 10.9309 15.0747 11.4072 15.0564 12.0591C15.056 12.0476 15.0559 12.036 15.0559 12.0244V12.095ZM18.8261 12.483L19.3861 13.2238V13.1885H19.6473L19.0501 12.4124C19.4234 12.3066 19.61 12.0597 19.61 11.7069C19.61 11.2131 19.2367 10.9309 18.6395 10.9309H17.7436V13.1885H18.0049V12.483H18.6395H18.8261ZM18.6395 11.1778C19.1247 11.1778 19.3861 11.3894 19.3861 11.7422C19.3861 12.095 19.1247 12.3066 18.6395 12.3066H18.0049V11.1778H18.6395ZM21.0285 12.4477V13.2238H20.7672V12.4477L19.7967 10.9662H20.058L20.8792 12.2361L21.7005 10.9662H21.9617L20.9912 12.4477H21.0285ZM22.6335 12.5182H23.2682C23.8654 12.5182 24.2387 12.2361 24.2387 11.7422C24.2387 11.2484 23.8654 10.9662 23.2682 10.9662H22.3723V13.2238H22.6335V12.5182ZM23.2309 11.1778C23.7161 11.1778 23.9774 11.3894 23.9774 11.7422C23.9774 12.095 23.7161 12.3066 23.2309 12.3066H22.5962V11.1778H23.2309ZM25.1347 11.1778H24.3135V10.9662H26.2546V11.1778H25.3961V13.2238H25.1347V11.1778ZM27.7104 10.9309C26.9638 10.9309 26.4412 11.4247 26.4412 12.095C26.4412 12.7651 26.9638 13.259 27.7104 13.259C28.457 13.259 28.9796 12.7651 28.9796 12.095C28.9796 11.4247 28.457 10.9309 27.7104 10.9309ZM27.7104 11.1425C28.3077 11.1425 28.7183 11.5658 28.7183 12.095C28.7183 12.6593 28.2704 13.0474 27.7104 13.0474C27.1505 13.0474 26.7025 12.6593 26.7025 12.095C26.7025 11.5305 27.1132 11.1425 27.7104 11.1425ZM29.3528 12.095C29.3528 12.083 29.353 12.071 29.3533 12.0591C29.3723 12.7116 29.9251 13.1885 30.6221 13.1885C30.9953 13.1885 31.294 13.0827 31.5179 12.871L31.3687 12.7299C31.182 12.9415 30.9207 13.0121 30.6594 13.0121C30.0994 13.0121 29.6515 12.624 29.6515 12.0597C29.6515 11.4953 30.0621 11.1073 30.6594 11.1073C30.9207 11.1073 31.182 11.2131 31.3687 11.3894L31.5179 11.2483C31.294 11.0367 30.958 10.9309 30.6221 10.9309C29.8888 10.9309 29.3716 11.4072 29.3533 12.0591C29.353 12.0476 29.3528 12.036 29.3528 12.0244V12.095ZM32.0033 10.9662V12.2713H32.078C32.078 12.9063 32.4513 13.259 33.0485 13.259C33.6458 13.259 34.0191 12.9063 34.0191 12.2713V10.9662H33.7578V12.2713C33.7578 12.8004 33.4965 13.0474 33.0112 13.0474C32.526 13.0474 32.2646 12.8004 32.2646 12.2713V10.9662H32.0033ZM36.4081 13.2238L35.8482 12.483H35.6616H35.027V13.1885H34.7656V10.9309H35.6616C36.2589 10.9309 36.6321 11.2131 36.6321 11.7069C36.6321 12.0597 36.4455 12.3066 36.0722 12.4124L36.6695 13.1885H36.4081V13.2238ZM36.4081 11.7422C36.4081 11.3894 36.1469 11.1778 35.6616 11.1778H35.027V12.3066H35.6616C36.1469 12.3066 36.4081 12.095 36.4081 11.7422ZM38.3494 12.483L38.9093 13.2238V13.1885H39.1707L38.5734 12.4124C38.9467 12.3066 39.1333 12.0597 39.1333 11.7069C39.1333 11.2131 38.76 10.9309 38.1628 10.9309H37.2668V13.1885H37.5282V12.483H38.1628H38.3494ZM38.1628 11.1778C38.6481 11.1778 38.9093 11.3894 38.9093 11.7422C38.9093 12.095 38.6481 12.3066 38.1628 12.3066H37.5282V11.1778H38.1628ZM41.4476 13.0121V13.0474H40.0291V12.2008H41.261V11.9892H40.0291V11.1778H41.4103V10.9662H39.7678V13.2238H41.4476V13.0474H41.485L41.4476 13.0121ZM44.0606 13.2238V10.9662H43.7993V12.8004L42.2688 10.9662H42.0449V13.2238H42.3061V11.3894L43.8366 13.2238H44.0606ZM44.6581 12.095C44.6581 12.0829 44.6583 12.071 44.6586 12.0591C44.6776 12.7116 45.2304 13.1885 45.9273 13.1885C46.3006 13.1885 46.5992 13.0827 46.8232 12.871L46.6739 12.7299C46.4873 12.9415 46.226 13.0121 45.9646 13.0121C45.4047 13.0121 44.9568 12.624 44.9568 12.0597C44.9568 11.4953 45.3674 11.1073 45.9646 11.1073C46.226 11.1073 46.4873 11.2131 46.6739 11.3894L46.8232 11.2483C46.5992 11.0367 46.2633 10.9309 45.9273 10.9309C45.1941 10.9309 44.6769 11.4072 44.6586 12.0591L44.6582 12.0394L44.6581 12.0244V12.095ZM48.1296 13.2238V12.4477H48.0923L49.0628 10.9662H48.8015L47.9803 12.2361L47.159 10.9662H46.8977L47.8683 12.4477V13.2238H48.1296ZM52.6464 10.9662V13.2238H52.4225L50.892 11.3894V13.2238H50.6307V10.9662H50.8547L52.3852 12.8004V10.9662H52.6464ZM55.1477 13.0474V13.0121L55.185 13.0474H55.1477ZM53.7292 13.0474H55.1477V13.2238H53.4679V10.9662H55.1104V11.1778H53.7292V11.9892H54.961V12.2008H53.7292V13.0474ZM59.0299 10.9662L58.2087 13.2238H57.9474L57.2381 11.2836L56.5289 13.2238H56.2676L55.4463 10.9662H55.7076L56.4169 12.9063L57.1262 10.9662H57.3501L58.0594 12.9415L58.7687 10.9662H59.0299ZM59.3659 12.7651L59.2539 12.9415V12.9768C59.4406 13.1532 59.7765 13.259 60.1496 13.259C60.7474 13.259 61.0457 12.9415 61.0457 12.624C61.0457 12.1936 60.6255 12.1007 60.2306 12.0136C59.8815 11.9365 59.5526 11.8639 59.5526 11.5658C59.5526 11.3189 59.7392 11.1425 60.1874 11.1425C60.4113 11.1425 60.6352 11.1778 60.859 11.3189L60.9335 11.1425C60.7474 11.0014 60.4485 10.9309 60.1874 10.9309C59.5526 10.9309 59.2913 11.2483 59.2913 11.5658C59.2913 12.0195 59.7201 12.1186 60.1181 12.2106C60.4629 12.2903 60.7846 12.3646 60.7846 12.6593C60.7846 12.871 60.5979 13.0474 60.1496 13.0474C59.8512 13.0474 59.3659 12.7651 59.3659 12.7651ZM64.5172 13.259L64.1811 12.9415C63.9944 13.1532 63.6961 13.259 63.3973 13.259C62.9117 13.259 62.5762 13.0121 62.5762 12.6946C62.5762 12.4124 62.725 12.2361 63.1734 11.9892C62.9495 11.7775 62.8745 11.6364 62.8745 11.46C62.8745 11.1778 63.0984 10.9662 63.4717 10.9662C63.8078 10.9662 64.0317 11.1425 64.0317 11.4247C64.0317 11.6364 63.8828 11.8128 63.5095 12.0244L64.1811 12.6593C64.1811 12.6593 64.2933 12.3772 64.3306 12.2361L64.5172 12.3066C64.48 12.5182 64.405 12.6946 64.2933 12.8357L64.6289 13.1532L64.5172 13.259ZM64.0317 12.8004L63.3228 12.095C62.9495 12.3066 62.8373 12.4477 62.8373 12.6593C62.8373 12.9063 63.0611 13.0827 63.4345 13.0827C63.6962 13.0827 63.92 13.0121 64.0689 12.8357L64.0317 12.8004ZM63.0984 11.4247C63.0984 11.4247 63.1362 11.6364 63.36 11.8481C63.6962 11.6717 63.8078 11.5305 63.8078 11.3894C63.8078 11.2484 63.6961 11.1073 63.4717 11.1073C63.2478 11.1073 63.0984 11.2484 63.0984 11.4247ZM65.8611 11.1778H66.6821V13.2238H66.9438V11.1778H67.8021V10.9662H65.8611V11.1778ZM69.9298 13.0121V13.0474H68.5115V12.2008H69.7431V11.9892H68.5115V11.1778H69.8926V10.9662H68.2504V13.2238H69.9298V13.0474H69.9676L69.9298 13.0121ZM70.3037 12.0762L70.3031 12.095V12.0244C70.3031 12.036 70.3037 12.0476 70.3037 12.0591V12.0762ZM70.3037 12.0591C70.3223 11.4072 70.8391 10.9309 71.5725 10.9309C71.9086 10.9309 72.2441 11.0367 72.4686 11.2483L72.3192 11.3894C72.1325 11.2131 71.8708 11.1073 71.6097 11.1073C71.0125 11.1073 70.602 11.4953 70.602 12.0597C70.602 12.624 71.0497 13.0121 71.6097 13.0121C71.8708 13.0121 72.1325 12.9415 72.3192 12.7299L72.4686 12.871C72.2441 13.0827 71.9458 13.1885 71.5725 13.1885C70.8757 13.1885 70.3229 12.7116 70.3037 12.0591ZM75.0068 13.2238H74.7451V12.1655H73.2525V13.2238H72.9908V10.9662H73.2525V11.9892H74.7451V10.9662H75.0068V13.2238ZM77.5823 13.2238H77.8067V10.9662H77.5451V12.8004L76.0146 10.9662H75.7907V13.2238H76.0518V11.3894L77.5823 13.2238ZM78.4039 12.095C78.4039 11.4247 78.9261 10.9309 79.6728 10.9309C80.4194 10.9309 80.9422 11.4247 80.9422 12.095C80.9422 12.7651 80.4194 13.259 79.6728 13.259C78.9261 13.259 78.4039 12.7651 78.4039 12.095ZM80.6811 12.095C80.6811 11.5658 80.2699 11.1425 79.6728 11.1425C79.0756 11.1425 78.665 11.5305 78.665 12.095C78.665 12.6593 79.1128 13.0474 79.6728 13.0474C80.2327 13.0474 80.6811 12.6593 80.6811 12.095ZM81.7632 10.9662H81.5022V13.2238H83.1071V13.0121H81.7632V10.9662ZM83.2943 12.095C83.2943 11.4247 83.8165 10.9309 84.5631 10.9309C85.3098 10.9309 85.8326 11.4247 85.8326 12.095C85.8326 12.7651 85.3098 13.259 84.5631 13.259C83.8165 13.259 83.2943 12.7651 83.2943 12.095ZM85.5709 12.095C85.5709 11.5658 85.1603 11.1425 84.5631 11.1425C83.966 11.1425 83.5554 11.5305 83.5554 12.095C83.5554 12.6593 84.0032 13.0474 84.5631 13.0474C85.1231 13.0474 85.5709 12.6593 85.5709 12.095ZM88.3336 12.095H88.0719V12.8357C87.8852 12.9768 87.6614 13.0121 87.4375 13.0121C86.8775 13.0121 86.4298 12.624 86.4298 12.0597C86.4298 11.4953 86.8775 11.1073 87.4747 11.1073C87.7364 11.1073 87.9975 11.2131 88.1841 11.3894L88.3336 11.2483C88.1091 11.0367 87.8108 10.9309 87.4375 10.9309C86.6908 10.9309 86.1681 11.4247 86.1681 12.095C86.1681 12.7651 86.6908 13.259 87.4375 13.259C87.7736 13.259 88.1091 13.1532 88.3336 12.9768V12.095ZM89.8641 12.4477V13.2238H89.6024V12.4477L88.6319 10.9662H88.8936L89.7146 12.2361L90.5357 10.9662H90.7974L89.8269 12.4477H89.8641ZM0.124046 10.4018L3.33437 13.3296H13.9733V0.242746H0.124046V10.4018ZM10.5016 5.88667C10.6509 4.93427 9.86702 4.44042 8.82178 4.08768H8.85911L9.1951 2.78252L8.37385 2.57087L8.03786 3.84076C7.94453 3.82312 7.86057 3.80548 7.77654 3.78784C7.69257 3.77021 7.6086 3.75257 7.51527 3.73493H7.36594L7.70193 2.46505L6.88069 2.2534L6.5447 3.55856H6.4327C6.28337 3.52328 6.02209 3.45274 6.02209 3.45274L4.86488 3.17054L4.6409 4.01713L5.23817 4.15823C5.57413 4.22878 5.61147 4.6168 5.61147 4.6168L5.23817 6.09836L4.67823 8.14424C4.6409 8.21483 4.52891 8.39116 4.30494 8.32064L3.70767 8.17953L3.29705 9.0614L4.37959 9.30832C4.45961 9.30832 4.52891 9.32861 4.59323 9.3474C4.64894 9.36366 4.70091 9.37885 4.75289 9.37885C4.82755 9.41414 4.97687 9.44943 4.97687 9.44943L4.6409 10.7546L5.46215 10.9662L5.79811 9.66106C6.02209 9.73164 6.24604 9.80216 6.47003 9.83745L6.1341 11.1073L6.95535 11.319L7.29128 10.0138C8.70978 10.2607 9.75502 10.1549 10.2029 8.95559C10.5763 7.96791 10.2029 7.40348 9.45637 7.05075C9.97902 6.90964 10.3896 6.5922 10.5016 5.88667ZM8.59779 8.39116C8.37385 9.27303 6.88069 8.9203 6.20871 8.74396H6.17138C6.1341 8.70867 6.02209 8.70867 6.02209 8.70867L6.47003 6.98022C6.5447 7.01546 6.61936 7.01546 6.69403 7.01546C6.73688 7.02614 6.78237 7.03718 6.82991 7.04871C7.56875 7.22829 8.80828 7.52946 8.59779 8.39116ZM6.8568 6.24282L6.84335 6.2394V6.20417H6.69403L7.10462 4.65207C7.17928 4.68735 7.21662 4.68735 7.29128 4.68735C7.88854 4.79317 9.0831 5.04009 8.85911 5.88667C8.63692 6.69159 7.42272 6.38549 6.8568 6.24282Z" fill="white"/>
</g>
</svg>
