<svg width="97" height="24" viewBox="0 0 97 24" fill="none" xmlns="http://www.w3.org/2000/svg">
<g clip-path="url(#clip0_2_859)">
<mask id="mask0_2_859" style="mask-type:luminance" maskUnits="userSpaceOnUse" x="0" y="0" width="97" height="24">
<path d="M96.1242 0.300049H0.693074V23.7077H96.1242V0.300049Z" fill="white"/>
</mask>
<g mask="url(#mask0_2_859)">
<path fill-rule="evenodd" clip-rule="evenodd" d="M6.28902 0.300049H17.4415L23.0375 6.00443H11.885L11.8455 6.04488V6.00443L6.28947 0.300521L11.8455 6.04488H0.693074L6.28902 0.300049ZM11.8455 17.4941H22.998L17.4415 23.1985L6.24961 23.1985L0.693074 17.4941V6.04488H11.8061L6.26925 11.7291L6.28902 11.7493V11.7898L11.8455 17.4941ZM17.4415 11.7493L17.402 11.7493L11.8455 6.04488H22.998L17.4415 11.7493ZM17.4415 11.7493H17.4809L23.0375 17.4537H11.885L17.4415 11.7493ZM30.131 13.6103C29.9734 13.7721 29.737 13.853 29.461 13.853L29.4217 13.8935C29.0276 13.8935 28.7123 13.7316 28.5547 13.408C28.3971 13.0439 28.3182 12.5584 28.3182 11.9516V11.7897C28.2788 11.3043 28.3576 10.8188 28.5547 10.3737C28.7123 10.0097 28.9882 9.84784 29.4217 9.84784C29.737 9.84784 29.934 9.9692 30.0916 10.1715C30.2492 10.4142 30.328 10.7379 30.328 11.021L32.3773 10.9806C32.4167 10.2119 32.1408 9.40279 31.5891 8.87684C31.0374 8.35095 30.328 8.10817 29.4217 8.10817C28.3576 8.10817 27.5301 8.43186 26.939 9.11962C26.3478 9.80738 26.072 10.6974 26.072 11.7897V11.9516C25.9932 12.9225 26.3478 13.853 26.939 14.6217C27.5301 15.269 28.3576 15.6331 29.461 15.6331C30.2492 15.6331 30.998 15.3903 31.5891 14.8645C32.1408 14.379 32.4561 13.6507 32.4167 12.8821H30.3675C30.3675 13.2057 30.2887 13.4485 30.131 13.6103ZM36.5151 10.1715H37.3427L37.5792 8.10817C37.3427 8.02726 37.1456 8.02726 36.9486 8.02726C36.6334 8.02726 36.3181 8.14862 36.0816 8.35095C35.8058 8.59367 35.6087 8.87684 35.4905 9.24098L35.4117 8.14862H33.3231V15.4712H35.5299V10.657C35.6087 10.4951 35.727 10.3737 35.8846 10.2928C36.0422 10.2119 36.2787 10.1715 36.5151 10.1715ZM41.5988 12.2752L41.5594 12.2348L41.4806 12.1943L40.3771 8.10817H38.0126L40.4953 15.5117L40.3377 15.9972C40.2589 16.1995 40.1407 16.3613 39.9831 16.4827C39.8254 16.6041 39.589 16.6445 39.2343 16.6445L39.1161 16.6041H38.9979L38.722 18.2223C38.9979 18.3032 39.1949 18.3437 39.3131 18.3437C39.4313 18.3841 39.589 18.3841 39.786 18.3841C40.5348 18.3841 41.0865 18.2223 41.4411 17.8582C41.7958 17.4941 42.0717 17.0491 42.3081 16.5231L45.1455 8.14862H42.781L41.5988 12.2752ZM49.835 10.3333C50.0321 10.6974 50.111 11.2234 50.111 11.8302L50.0715 11.8706V11.992C50.111 12.4775 50.0321 12.9225 49.835 13.3676C49.6774 13.6912 49.4016 13.853 49.0075 13.853C48.8105 13.853 48.574 13.8125 48.377 13.7316C48.2193 13.6507 47.9829 13.3676 47.9829 13.3676V10.2928C48.0617 10.131 48.2193 9.9692 48.377 9.88829C48.5346 9.80738 48.7711 9.76693 49.0075 9.76693C49.3622 9.76693 49.6774 9.9692 49.835 10.3333ZM51.6084 14.5812C52.0813 13.9339 52.3178 13.0439 52.3178 11.9516V11.8706C52.3572 10.8997 52.1208 9.92874 51.6084 9.11962C51.1355 8.43186 50.4262 8.06772 49.5592 8.06772C48.8893 8.02726 48.2588 8.3914 47.9041 8.9982L47.8253 8.18908H45.7366V18.2628H47.9435V14.824C48.3376 15.3094 48.9287 15.5927 49.5592 15.5927C50.3868 15.5927 51.1355 15.2285 51.6084 14.5812ZM55.9434 8.14862V6.32811L55.9039 6.36856H53.6577V8.18908H52.6725V9.76693H53.6577V13.1248C53.6577 14.0148 53.8547 14.6217 54.2488 15.0263C54.6035 15.4308 55.1552 15.6331 55.9039 15.6331C56.3768 15.6331 56.8497 15.5927 57.2832 15.4712L57.1256 13.7721C56.9285 13.8125 56.7315 13.8125 56.4951 13.8125C56.3768 13.8125 56.2192 13.7721 56.101 13.6507C55.9827 13.5294 55.9434 13.3271 55.9434 13.0843V9.72642H57.165V8.14862H55.9434ZM60.1994 13.327C60.0024 12.963 59.9236 12.4775 59.9236 11.8706V11.7088C59.9236 11.1424 60.0024 10.657 60.1994 10.2928C60.3964 9.92874 60.7117 9.76693 61.1454 9.76693C61.5787 9.76693 61.8938 9.92874 62.0913 10.2928C62.2881 10.7379 62.3668 11.2234 62.3668 11.7088V11.8706C62.3668 12.4775 62.2881 12.963 62.0913 13.327C61.8938 13.6912 61.5787 13.853 61.1454 13.853C60.7117 13.853 60.3964 13.6912 60.1994 13.327ZM58.6231 9.07917C57.9925 9.80738 57.6773 10.7783 57.7167 11.7493H57.6773V11.9111C57.6379 12.8821 57.9532 13.853 58.5837 14.5812C59.2142 15.2285 60.0812 15.5927 61.1454 15.5927C62.2095 15.5927 63.0762 15.269 63.6674 14.5812C64.2586 13.8935 64.5737 13.0034 64.5737 11.9111V11.7493C64.6133 10.7783 64.2976 9.80738 63.6674 9.07917C63.0762 8.3914 62.2095 8.02726 61.1454 8.02726C60.0812 8.02726 59.2142 8.3914 58.6231 9.07917ZM67.6509 8.18908L67.6473 8.14862L67.7265 8.18908H67.6509ZM67.6509 8.18908H65.6378V15.5117H67.8448V10.2524C68.0812 9.9692 68.4359 9.80738 68.7907 9.80738C69.1448 9.80738 69.3813 9.88829 69.5391 10.0501C69.697 10.2119 69.7756 10.5356 69.7756 10.9401V15.4712H71.9825V10.9401C71.9825 9.92874 71.7856 9.20053 71.3913 8.71503C70.997 8.26998 70.4454 8.02726 69.736 8.02726C69.3422 7.98681 68.9479 8.10817 68.5932 8.31044C68.2385 8.51276 67.963 8.79593 67.7265 9.16007L67.6509 8.18908ZM75.5687 10.131C75.7259 9.88829 75.9624 9.76693 76.2781 9.76693C76.6328 9.76693 76.8297 9.84784 76.9875 10.0501C77.1448 10.2524 77.224 10.5356 77.224 10.8997V11.0615H75.2926C75.3322 10.657 75.4108 10.3737 75.5687 10.131ZM73.9133 14.5812C74.5441 15.269 75.3718 15.5927 76.4353 15.5927V15.6331C76.9875 15.6331 77.4995 15.5522 78.0121 15.3903C78.4454 15.2285 78.8787 15.0263 79.2335 14.7835L78.7215 13.408C78.0907 13.7316 77.4209 13.853 76.751 13.853C76.3567 13.853 76.002 13.7316 75.7655 13.4889C75.49 13.2461 75.3718 12.9225 75.2926 12.5179H79.3913V11.3043C79.4303 10.4546 79.1548 9.5646 78.5636 8.91729C78.0121 8.31044 77.263 8.02726 76.2781 8.02726C75.2139 8.02726 74.4259 8.3914 73.8347 9.07917C73.2435 9.76693 72.9674 10.657 72.9674 11.7897V12.0325C72.9284 12.963 73.2831 13.8935 73.9133 14.5812ZM86.4844 12.3966H86.4454H86.4058L85.1844 8.14862H83.7655L82.5831 12.3966H82.5435L81.7555 8.14862H79.7064L81.4008 15.4712H83.2926L84.475 11.5874H84.514L85.6964 15.4712H87.5882L89.2825 8.14862H87.2335L86.4844 12.3966ZM93.5385 12.9225C93.6964 13.0843 93.8146 13.408 93.8146 13.408V13.4485C93.8146 13.6912 93.736 13.853 93.5781 13.9339C93.4203 14.0553 93.1838 14.0958 92.9083 14.0958C92.5536 14.0958 92.2775 14.0148 92.0806 13.853C91.8838 13.7316 91.7655 13.4889 91.7655 13.1248L89.7555 13.1652C89.7555 13.7721 90.0316 14.379 90.5832 14.8645C91.1347 15.3903 91.8838 15.6331 92.8687 15.6331C93.6568 15.6736 94.4448 15.4308 95.1152 14.9858C95.7058 14.5812 95.9819 14.0148 95.9819 13.3676C96.0215 12.7607 95.7851 12.2348 95.3517 11.8706C94.7605 11.4661 94.1297 11.2234 93.4203 11.1019C93.0265 11.0615 92.6718 10.9401 92.3171 10.7379C92.1593 10.6165 92.041 10.4546 92.041 10.2524C92.041 10.0501 92.1203 9.88829 92.2775 9.76693C92.4354 9.60506 92.6322 9.5646 92.8687 9.5646C93.1838 9.5646 93.3813 9.64551 93.5385 9.80738C93.6964 9.9692 93.775 10.1715 93.775 10.4546L95.9423 10.4142C95.9423 9.72642 95.6272 9.07917 95.1152 8.71503C94.524 8.26998 93.775 8.06772 92.8291 8.06772C91.9624 8.06772 91.2134 8.26998 90.7014 8.71503C90.1888 9.07917 89.9133 9.68596 89.9133 10.3333C89.9133 10.8997 90.1102 11.4256 90.5435 11.7897C91.0951 12.1943 91.7655 12.437 92.4354 12.5584C92.8291 12.5988 93.1838 12.7203 93.5385 12.9225Z" fill="white"/>
</g>
</g>
<defs>
<clipPath id="clip0_2_859">
<rect width="95.4311" height="24.0078" fill="white" transform="translate(0.693054)"/>
</clipPath>
</defs>
</svg>
