<svg width="93" height="24" viewBox="0 0 93 24" fill="none" xmlns="http://www.w3.org/2000/svg">
<g clip-path="url(#clip0_2_853)">
<mask id="mask0_2_853" style="mask-type:luminance" maskUnits="userSpaceOnUse" x="0" y="0" width="93" height="24">
<path d="M92.6931 0.90033H0.26297V23.1076H92.6931V0.90033Z" fill="white"/>
</mask>
<g mask="url(#mask0_2_853)">
<path fill-rule="evenodd" clip-rule="evenodd" d="M0.304425 16.5033C0.325152 16.7891 0.34588 17.0749 0.34588 17.3403V17.3812H0.677518C0.781154 17.2383 0.864066 17.1055 0.946971 16.9728C1.02988 16.8401 1.11279 16.7074 1.21643 16.5645C2.67586 14.5068 4.17479 12.4295 5.65869 10.3732C6.3244 9.45059 6.98714 8.53224 7.64189 7.62168C7.76625 7.49918 8.05645 7.29499 8.05645 7.29499H11.8703C9.00992 11.256 6.191 15.1761 3.41353 19.0555C3.41353 19.0963 3.49644 19.178 3.49644 19.178C4.25766 19.5896 5.02424 20.0119 5.7962 20.4371L5.79713 20.4376C7.16888 21.1932 8.55767 21.9582 9.96339 22.6898C10.1706 22.8123 10.5852 22.8123 10.7925 22.6898C12.5661 21.6664 14.3551 20.6584 16.1503 19.647C17.2922 19.0036 18.4365 18.3588 19.5809 17.7079C19.9125 17.5037 20.1198 17.177 20.1198 16.7687C20.1327 16.4388 20.1495 16.1011 20.1667 15.7578C20.2048 14.9965 20.2441 14.2083 20.2441 13.4202C20.2303 12.7639 20.221 12.103 20.2118 11.4405C20.1934 10.1247 20.1749 8.80292 20.1198 7.49918C20.1198 7.09081 20.0784 6.76412 19.9954 6.27412C19.8296 6.47828 19.7882 6.51913 19.7053 6.60079C18.0885 8.89781 16.4017 11.2638 14.715 13.6297C14.1528 14.4182 13.5906 15.2068 13.031 15.9928C12.8237 16.2787 12.6165 16.4012 12.2848 16.4012H9.21723C9.15499 16.4012 9.08248 16.3808 9.00992 16.3603C8.93736 16.3399 8.86485 16.3195 8.80267 16.3195C11.1715 12.9413 13.5704 9.59278 15.9481 6.27401L15.9496 6.27204L15.9559 6.26323L15.9611 6.25581L15.9736 6.23847L15.9802 6.2292L15.9839 6.22409C16.3821 5.66824 16.7798 5.11323 17.1765 4.55905C17.1259 4.5092 17.0959 4.46611 17.0725 4.43254C17.0384 4.38361 17.0184 4.35488 16.9692 4.35488C16.2645 3.97376 15.5598 3.58356 14.855 3.19336C13.4456 2.41296 12.0361 1.63256 10.6267 0.924752C10.3365 0.883917 9.96339 0.883917 9.6732 1.00642C8.44736 1.67144 7.22146 2.35895 5.99562 3.04647C4.36112 3.96317 2.72657 4.8799 1.09207 5.74326C0.470244 6.11078 0.26297 6.55996 0.26297 7.17249V15.6662C0.26297 15.9316 0.283697 16.2174 0.304425 16.5033ZM75.9176 14.1144C75.959 12.8894 75.5035 12.0318 74.3427 11.5418C74.3553 11.5356 74.3667 11.5304 74.3775 11.5257C74.3859 11.522 74.3943 11.5186 74.4021 11.5154C74.4507 11.4951 74.4892 11.4791 74.5498 11.4193C75.4621 10.9292 75.7934 10.0717 75.5863 9.13249C75.3786 8.23418 74.674 7.70331 73.8037 7.58081C73.1699 7.45068 72.4851 7.43664 71.7931 7.42247C71.3993 7.41437 71.0026 7.40627 70.6119 7.37662H68.4974C68.4146 7.53993 68.4146 7.66249 68.4146 7.66249V15.7886C68.4146 16.197 68.6216 16.197 68.9121 16.197H72.5187C73.0577 16.197 73.5132 16.197 74.0108 16.0745C75.0473 15.7886 75.8348 14.9719 75.9176 14.1144ZM71.3963 14.4595C71.1106 14.4503 70.822 14.441 70.5285 14.441C70.5285 13.8421 70.5303 13.2423 70.6119 12.6035C71.4408 12.6035 72.311 12.6443 73.1405 12.726C73.5961 12.7668 73.8866 13.0935 73.8866 13.5835C73.8037 14.0327 73.4718 14.3594 73.0577 14.441C72.5079 14.4952 71.9581 14.4775 71.3963 14.4595ZM71.2751 10.9065C71.026 10.8975 70.7775 10.8884 70.5285 10.8884H70.487V9.13249C70.7373 9.13249 70.9924 9.12331 71.2457 9.11418C71.7481 9.09612 72.2438 9.07823 72.6844 9.13249C73.0991 9.21418 73.5132 9.41836 73.5132 9.94924C73.5132 10.48 73.3062 10.8067 72.7672 10.8884C72.2696 10.9429 71.7721 10.9247 71.2751 10.9065ZM51.4183 7.45843C51.7914 8.64261 52.1541 9.81659 52.5168 10.9906C52.8796 12.1646 53.2423 13.3387 53.6154 14.5228H53.7398C54.1129 13.3387 54.4756 12.1646 54.8383 10.9906L54.839 10.9884C55.2015 9.81515 55.564 8.64189 55.9369 7.45843H57.2219C56.9346 8.26995 56.6649 9.08147 56.3966 9.88898C56.0843 10.8286 55.7739 11.7629 55.4394 12.6853C55.3178 13.0598 55.1849 13.4288 55.0512 13.8004C54.8204 14.4417 54.5868 15.0906 54.4031 15.7887C54.2964 16.3142 53.915 16.2987 53.547 16.2837C53.4861 16.2812 53.4255 16.2787 53.3666 16.2787C53.035 16.2787 52.8277 16.1562 52.7448 15.7887C52.123 13.6245 51.4598 11.5419 50.7135 9.2143C50.4234 9.94936 50.2161 10.6435 50.0503 11.2152C49.8015 11.9911 49.5632 12.7465 49.3248 13.502C49.0865 14.2574 48.8481 15.0128 48.5994 15.7887C48.5165 16.1154 48.3092 16.2787 47.9776 16.2787C47.8746 16.2534 47.7557 16.2635 47.6369 16.2735C47.373 16.2958 47.1099 16.3181 47.0241 15.9521C46.5475 14.5437 46.0916 13.1455 45.6358 11.7472L45.6354 11.7461L45.635 11.745C45.1791 10.3469 44.7232 8.94841 44.2466 7.54011C44.2952 7.54011 44.3153 7.51208 44.332 7.48885C44.3438 7.47241 44.3538 7.45843 44.371 7.45843C45.5317 7.37674 45.6146 7.37674 45.9463 8.4793C46.0204 8.71301 46.0946 8.94613 46.1686 9.17883L46.169 9.18009C46.7155 10.8984 47.2543 12.5927 47.7288 14.3187C47.7288 14.3576 47.7477 14.3873 47.7719 14.4254C47.7985 14.4672 47.8315 14.5191 47.8532 14.6045C48.1971 13.4527 48.5537 12.3258 48.9089 11.2032C49.196 10.2961 49.4822 9.39172 49.7601 8.4793C49.8349 8.27685 49.8899 8.11222 49.9346 7.97855C50.0344 7.68026 50.0826 7.53639 50.1822 7.47151C50.275 7.41107 50.4125 7.41917 50.678 7.4349C50.8499 7.4451 51.0752 7.45843 51.3768 7.45843H51.4183ZM92.0023 14.0328C91.8156 13.8287 91.6295 13.6245 91.4219 13.4203C89.4322 14.7678 88.1886 14.7678 87.1107 13.502C86.2818 12.5219 86.3646 10.8885 87.2349 9.94936C87.6496 9.4593 88.1886 9.2143 88.8104 9.13267C89.847 8.9693 90.6758 9.4593 91.4219 10.1944C91.5173 10.0818 91.6121 9.97144 91.7064 9.86221C92.0227 9.49585 92.3276 9.14257 92.5826 8.76511C90.8415 6.80505 87.5668 6.76424 85.7428 8.56092C83.9602 10.3985 83.9602 13.502 86.157 15.2987C88.0644 16.8504 90.9657 16.6054 92.5826 14.6453C92.3756 14.4412 92.1889 14.237 92.0023 14.0328ZM28.3693 9.66354V16.1972H27.1257V7.4993C27.9548 7.29511 28.4937 7.4993 28.9497 8.15267C29.8165 9.41962 30.7587 10.6866 31.7382 12.0036C32.2109 12.6393 32.6923 13.2866 33.1781 13.9512V7.41761H34.4217V16.0746C33.5512 16.3605 33.3439 16.1972 32.8464 15.5438C32.6174 15.2344 32.3895 14.927 32.1625 14.621C30.9516 12.9887 29.7701 11.3959 28.6181 9.74523C28.5785 9.74523 28.5484 9.72662 28.5097 9.70274C28.4673 9.67657 28.4146 9.64404 28.3279 9.62273L28.3693 9.66354ZM38.1111 12.3585H42.3396L42.2981 12.3176C42.2981 11.9093 42.2981 11.5418 42.381 11.0517H38.1526V8.4383H42.9199V7.37662H36.8675V16.1153H43.0028V14.9719H38.1111V12.3585ZM84.0431 7.37674L84.1259 7.49924C84.2087 8.61536 83.6835 9.17348 82.5504 9.17348H81.5144V16.1154H79.4828V9.17348H77.3689C76.8713 9.17348 76.7471 9.05098 76.7471 8.56092C76.7471 7.74424 77.1612 7.33587 77.9907 7.33587H84.0431V7.37674ZM58.0575 14.4477C57.9886 14.574 57.9161 14.7068 57.8436 14.8495H57.7607C59.0044 15.9929 60.4554 16.4421 62.0723 16.3196C63.0668 16.1971 63.9791 15.7071 64.3104 14.7679C64.808 13.4203 64.5181 12.277 62.8183 11.6236C62.4036 11.4603 61.9997 11.3071 61.5951 11.154C61.1912 11.0009 60.7867 10.8477 60.3726 10.6844C59.8749 10.4802 59.6262 10.1127 59.7506 9.62267C59.8749 9.29598 60.2066 9.01017 60.4968 8.80598C60.7039 8.68348 61.0358 8.6018 61.3257 8.68348C61.8544 8.76157 62.3826 8.90592 62.9216 9.05326C63.2283 9.13711 63.5386 9.22192 63.8549 9.29598C63.9491 9.13291 64.0301 8.95657 64.1208 8.75935C64.1892 8.61086 64.263 8.45055 64.3518 8.27511C63.0668 7.54011 61.699 7.21343 60.2066 7.6218C59.1288 7.8668 58.4655 8.6018 58.3825 9.41848C58.2582 10.8477 58.7971 11.5011 59.9579 11.9911C60.2383 12.0886 60.5256 12.1796 60.8161 12.2719C61.2566 12.4115 61.7056 12.554 62.1551 12.7262C62.6107 12.9303 63.0254 13.1753 63.1082 13.7878C63.1911 14.4412 62.6107 14.972 61.7404 15.0537C60.414 15.1354 59.336 14.6454 58.3825 13.7878C58.3017 14.0003 58.1857 14.2128 58.0575 14.4477Z" fill="white"/>
</g>
</g>
<defs>
<clipPath id="clip0_2_853">
<rect width="92.4301" height="22.8074" fill="white" transform="translate(0.262939 0.60022)"/>
</clipPath>
</defs>
</svg>
