<svg width="118" height="20" viewBox="0 0 118 20" fill="none" xmlns="http://www.w3.org/2000/svg">
<g clip-path="url(#clip0_2_830)">
<mask id="mask0_2_830" style="mask-type:luminance" maskUnits="userSpaceOnUse" x="0" y="0" width="118" height="20">
<path d="M117.263 0.400757H0.224823V19.607H117.263V0.400757Z" fill="white"/>
</mask>
<g mask="url(#mask0_2_830)">
<mask id="mask1_2_830" style="mask-type:luminance" maskUnits="userSpaceOnUse" x="0" y="0" width="118" height="20">
<path d="M117.263 0.400757H0.224823V19.607H117.263V0.400757Z" fill="white"/>
</mask>
<g mask="url(#mask1_2_830)">
<path d="M5.26922 7.70685V17.1683H2.70856V7.70685H5.26922Z" fill="white"/>
<path d="M9.33636 8.20701C10.047 7.66515 10.82 7.39423 11.6553 7.39423C12.2414 7.39423 12.8092 7.50538 13.3587 7.72769C13.9082 7.95001 14.3734 8.25911 14.7544 8.65506C15.1427 9.0441 15.4211 9.5095 15.5897 10.0514C15.7655 10.5932 15.8534 11.2705 15.8534 12.0833V17.1683H13.2928V12.2396C13.2928 11.1767 13.1279 10.4682 12.7982 10.1139C12.4759 9.77352 12.0326 9.60331 11.4684 9.60331C10.7284 9.60331 10.1716 9.82214 9.79797 10.2597C9.49025 10.621 9.33636 11.3469 9.33636 12.4375V17.1683H6.77574V7.70687H9.33636V8.20701Z" fill="white"/>
<path d="M24.1514 9.63458L22.1623 10.5724C21.8692 10.1833 21.6164 9.91937 21.404 9.78042C21.1915 9.63458 20.9387 9.56165 20.6456 9.56165C20.3306 9.56165 20.0778 9.63109 19.8873 9.77004C19.7042 9.90898 19.6126 10.0931 19.6126 10.3223C19.6126 10.5307 19.6785 10.6835 19.8104 10.7808C19.9496 10.878 20.305 11.0309 20.8764 11.2393L21.7886 11.5623C22.4334 11.7985 22.9498 12.0694 23.3382 12.3751C23.9316 12.8405 24.2284 13.4657 24.2284 14.2507C24.2284 15.2023 23.8327 15.9942 23.0414 16.6264C22.3454 17.1961 21.4955 17.4809 20.4918 17.4809C19.1583 17.4809 18.118 16.9981 17.3707 16.0325C17.1069 15.6921 16.8468 15.1954 16.5903 14.5424L18.6784 13.7505C18.9935 14.3409 19.2792 14.7473 19.5357 14.9697C19.7994 15.185 20.1218 15.2927 20.5028 15.2927C20.8544 15.2927 21.1365 15.2023 21.349 15.0217C21.5615 14.8411 21.6677 14.6049 21.6677 14.3132C21.6677 14.1117 21.5908 13.9554 21.4369 13.8443C21.283 13.7262 20.935 13.5699 20.3929 13.3754L19.3818 13.0107C17.8945 12.4688 17.1508 11.5936 17.1508 10.3848C17.1508 9.4748 17.5208 8.73494 18.2608 8.16536C18.9422 7.65129 19.7445 7.39423 20.6676 7.39423C21.4516 7.39423 22.1183 7.5714 22.6678 7.9257C23.2246 8.27993 23.7192 8.84958 24.1514 9.63458Z" fill="white"/>
<path d="M27.6475 7.70685V17.1683H25.0869V7.70685H27.6475Z" fill="white"/>
<path d="M39.0007 17.1682H36.4401V16.5638C35.5902 17.1751 34.6963 17.4808 33.7585 17.4808C32.2053 17.4808 30.9085 16.9286 29.8681 15.824C28.9669 14.8723 28.5163 13.74 28.5163 12.4271C28.5163 10.9057 29.0988 9.65186 30.2637 8.66544C31.2601 7.81796 32.4251 7.39416 33.7585 7.39416C34.6963 7.39416 35.5902 7.69984 36.4401 8.31114V2.94482H39.0007V17.1682ZM33.7585 9.60324C32.916 9.60324 32.2309 9.92279 31.7034 10.5619C31.3077 11.0482 31.11 11.6699 31.11 12.4271C31.11 13.3162 31.3774 14.0179 31.9122 14.5319C32.4251 15.0252 33.0551 15.2717 33.8025 15.2717C34.6743 15.2717 35.3631 14.9522 35.8686 14.3131C36.2569 13.813 36.451 13.1808 36.451 12.4167C36.451 11.5483 36.191 10.8536 35.6708 10.3327C35.1799 9.84638 34.5425 9.60324 33.7585 9.60324Z" fill="white"/>
<path d="M42.4968 13.3441C42.6433 13.8582 42.8558 14.2576 43.1342 14.5424C43.6251 15.0356 44.2442 15.2822 44.9915 15.2822C45.8634 15.2822 46.5704 15.0218 47.1126 14.5007C47.2151 14.3965 47.3836 14.1742 47.6181 13.8338L49.7941 14.6883C49.2959 15.4663 48.805 16.0394 48.3214 16.4076C47.3763 17.1231 46.27 17.4809 45.0025 17.4809C43.4199 17.4809 42.1341 16.9286 41.145 15.8241C40.2878 14.8724 39.8592 13.7401 39.8592 12.4272C39.8592 11.531 40.0753 10.7009 40.5076 9.93677C40.9618 9.12399 41.5919 8.4918 42.3979 8.04028C43.1672 7.60958 43.9988 7.39423 44.8926 7.39423C46.3506 7.39423 47.5412 7.88747 48.4643 8.87389C49.3875 9.85341 49.849 11.1177 49.849 12.6668C49.849 12.8057 49.8454 13.0315 49.8381 13.3441H42.4968ZM47.2884 11.531C46.8488 10.2042 46.0502 9.54077 44.8926 9.54077C44.2918 9.54077 43.7826 9.71446 43.365 10.0618C42.9547 10.4022 42.6653 10.8919 42.4968 11.531H47.2884Z" fill="white"/>
<path d="M54.7972 17.4731V3.24969H57.3579V8.61605C58.2077 8.0047 59.1016 7.69908 60.0394 7.69908C61.5927 7.69908 62.8897 8.24783 63.9299 9.34541C64.8308 10.2971 65.2815 11.426 65.2815 12.732C65.2815 14.2602 64.6993 15.5211 63.5343 16.5144C62.538 17.3619 61.373 17.7857 60.0394 17.7857C59.1016 17.7857 58.2077 17.48 57.3579 16.8687V17.4731H54.7972ZM59.9405 9.90809C59.1053 9.90809 58.4348 10.2276 57.9293 10.8668C57.541 11.36 57.3469 11.9817 57.3469 12.732C57.3469 13.6142 57.6069 14.3158 58.1271 14.8368C58.6253 15.33 59.2481 15.5766 59.9954 15.5766C60.8671 15.5766 61.5669 15.2536 62.0945 14.6076C62.49 14.1213 62.6881 13.4961 62.6881 12.732C62.6881 11.8497 62.4204 11.1516 61.8856 10.6375C61.3802 10.1512 60.732 9.90809 59.9405 9.90809Z" fill="white"/>
<path d="M68.7005 8.0116V17.473H66.14V8.0116H68.7005Z" fill="white"/>
<path d="M72.8775 10.1998V14.42C72.8775 14.7743 72.9105 15.0174 72.9759 15.1494C73.0498 15.2814 73.1848 15.3473 73.3829 15.3473C73.632 15.3473 74.0239 15.2675 74.5587 15.1077V17.4105C74.0095 17.5703 73.5149 17.6502 73.075 17.6502C72.1885 17.6502 71.5073 17.3723 71.0313 16.8166C70.5548 16.2539 70.3165 15.455 70.3165 14.42V10.1998H69.2727V8.01163H70.3165V5.97972L72.8775 5.03149V8.01163H74.4158V10.1998H72.8775Z" fill="white"/>
<path d="M82.4392 11.2315C81.8751 10.6758 81.4357 10.318 81.1206 10.1582C80.8055 9.99148 80.3992 9.90812 79.901 9.90812C78.9779 9.90812 78.2595 10.2277 77.7469 10.8668C77.3514 11.353 77.1533 11.9748 77.1533 12.732C77.1533 13.6212 77.421 14.3228 77.9558 14.8368C78.4611 15.33 79.113 15.5767 79.9118 15.5767C80.41 15.5767 80.8493 15.476 81.2305 15.2745C81.6116 15.0661 82.0329 14.7013 82.4945 14.1804L84.2086 15.7434C83.513 16.4728 82.8312 16.9973 82.165 17.3168C81.4981 17.6294 80.7431 17.7857 79.901 17.7857C78.2667 17.7857 76.9336 17.2369 75.9007 16.1393C75.0064 15.1807 74.5599 14.0484 74.5599 12.7424C74.5599 11.2141 75.1421 9.95331 76.307 8.95993C77.2962 8.11935 78.4942 7.6991 79.901 7.6991C80.7215 7.6991 81.4579 7.85191 82.1097 8.15759C82.7694 8.4563 83.447 8.95993 84.1432 9.66846L82.4392 11.2315Z" fill="white"/>
<path d="M89.2102 7.6991C90.7413 7.6991 92.0275 8.24786 93.0676 9.34543C93.9691 10.2972 94.4192 11.426 94.4192 12.732C94.4192 14.2603 93.8371 15.5211 92.6721 16.5145C91.683 17.3619 90.5 17.7857 89.1225 17.7857C87.5176 17.7857 86.1954 17.2369 85.1552 16.1393C84.2609 15.1876 83.8144 14.0414 83.8144 12.7007C83.8144 11.2072 84.3966 9.96369 85.5616 8.97031C86.5507 8.12283 87.7667 7.6991 89.2102 7.6991ZM89.0673 9.90812C88.2174 9.90812 87.529 10.2277 87.0014 10.8668C86.6059 11.353 86.4078 11.9748 86.4078 12.732C86.4078 13.6212 86.6755 14.3228 87.2103 14.8368C87.7229 15.33 88.3603 15.5767 89.1225 15.5767C90.009 15.5767 90.7124 15.2536 91.2322 14.6076C91.6283 14.1213 91.8258 13.4961 91.8258 12.732C91.8258 11.8497 91.5587 11.1516 91.0233 10.6375C90.518 10.1513 89.8662 9.90812 89.0673 9.90812Z" fill="white"/>
<path d="M97.8272 8.0116V17.473H95.2668V8.0116H97.8272Z" fill="white"/>
<path d="M101.895 8.51182C102.605 7.97003 103.378 7.6991 104.213 7.6991C104.8 7.6991 105.367 7.81025 105.917 8.03251C106.466 8.25482 106.931 8.56392 107.313 8.95993C107.701 9.34891 107.979 9.81437 108.147 10.3562C108.323 10.898 108.412 11.5753 108.412 12.3881V17.4731H105.851V12.5444C105.851 11.4816 105.686 10.773 105.356 10.4187C105.034 10.0783 104.591 9.90812 104.027 9.90812C103.286 9.90812 102.729 10.1269 102.356 10.5646C102.048 10.9258 101.895 11.6517 101.895 12.7424V17.4731H99.3336V8.01168H101.895V8.51182Z" fill="white"/>
<path d="M116.71 9.93939L114.721 10.8772C114.427 10.4882 114.175 10.2242 113.962 10.0853C113.75 9.93939 113.497 9.86646 113.204 9.86646C112.889 9.86646 112.636 9.93591 112.445 10.0749C112.262 10.2138 112.171 10.3979 112.171 10.6271C112.171 10.8355 112.237 10.9883 112.369 11.0856C112.508 11.1829 112.863 11.3357 113.435 11.5441L114.347 11.8671C114.991 12.1033 115.508 12.3742 115.897 12.6799C116.49 13.1453 116.787 13.7705 116.787 14.5555C116.787 15.5072 116.391 16.2991 115.599 16.9312C114.904 17.5009 114.054 17.7857 113.05 17.7857C111.717 17.7857 110.676 17.3029 109.929 16.3373C109.665 15.9969 109.405 15.5003 109.149 14.8472L111.237 14.0553C111.552 14.6458 111.837 15.0522 112.094 15.2745C112.358 15.4898 112.68 15.5975 113.061 15.5975C113.413 15.5975 113.695 15.5072 113.908 15.3266C114.12 15.146 114.226 14.9098 114.226 14.618C114.226 14.4165 114.149 14.2603 113.995 14.1491C113.841 14.031 113.493 13.8747 112.951 13.6802L111.94 13.3155C110.453 12.7736 109.709 11.8984 109.709 10.6896C109.709 9.77962 110.079 9.03981 110.819 8.47017C111.501 7.9561 112.303 7.6991 113.226 7.6991C114.01 7.6991 114.676 7.87621 115.226 8.23051C115.783 8.58481 116.278 9.15439 116.71 9.93939Z" fill="white"/>
</g>
</g>
</g>
<defs>
<clipPath id="clip0_2_830">
<rect width="117.038" height="19.2063" fill="white" transform="translate(0.224823 0.400757)"/>
</clipPath>
</defs>
</svg>
