<svg width="121" height="24" viewBox="0 0 121 24" fill="none" xmlns="http://www.w3.org/2000/svg">
<g clip-path="url(#clip0_2_871)">
<mask id="mask0_2_871" style="mask-type:luminance" maskUnits="userSpaceOnUse" x="0" y="0" width="121" height="25">
<path d="M120.396 0H0.356812V24.0078H120.396V0Z" fill="white"/>
</mask>
<g mask="url(#mask0_2_871)">
<path fill-rule="evenodd" clip-rule="evenodd" d="M14.0147 8.44907L13.6282 8.30821L3.47779 4.6309L8.24416 2.84826L8.45729 2.92412L8.85642 3.07041L14.0237 4.93974L18.2212 6.4533L18.6131 6.59417L18.8587 6.68264L14.3976 8.30821L14.0147 8.44907ZM11.3886 4.59297L10.3663 4.16853L9.14181 4.60199L10.1641 5.02824L11.3886 4.59297ZM10.4856 5.80852L9.64388 5.45809L8.63969 5.81573L9.47774 6.16971L10.4856 5.80852ZM12.6529 5.44727L11.8112 5.09689L10.8035 5.45809L11.6451 5.80852L12.6529 5.44727ZM9.34228 3.717L8.48436 3.36481L7.49104 3.72242L8.3471 4.07823L9.34228 3.717ZM7.48923 4.23537L5.73907 4.85125L7.19844 5.45809L8.94855 4.84042L7.48923 4.23537ZM5.56388 2.24863L6.53192 1.92352L7.34651 2.25585L6.37665 2.58276L5.56388 2.24863ZM3.67647 2.71461L2.36883 2.17819L3.92934 1.65622L5.23695 2.19083L3.67647 2.71461ZM2.29478 2.71099L3.43626 3.17879L2.07444 3.63573L0.932966 3.16795L2.29478 2.71099ZM1.48745 1.26429L2.43566 1.6526L1.30503 2.03189L0.356812 1.64358L1.48745 1.26429ZM3.91847 0.558091L4.54341 0.814561L3.79929 1.0638L3.17618 0.809142L3.91847 0.558091ZM1.56691 0L2.19003 0.254664L1.44771 0.505715L0.822791 0.249245L1.56691 0ZM70.8498 20.0336C68.0409 20.0336 66.5746 18.139 66.5746 15.5797V14.1348C66.5746 11.5756 68.0409 9.67905 70.8498 9.67905C73.6587 9.67905 75.1304 11.5719 75.1304 14.1312V15.5761C75.1304 18.139 73.6587 20.0336 70.8498 20.0336ZM72.7644 14.1312C72.7644 12.6628 72.103 11.7146 70.8498 11.7146C69.5966 11.7146 68.9352 12.6628 68.9352 14.1312V15.5761C68.9352 17.0427 69.5978 17.9909 70.8498 17.9909C72.1012 17.9909 72.7644 17.0427 72.7644 15.5761V14.1312ZM81.226 20.0336C80.6516 20.0291 80.0778 19.9875 79.5082 19.909V23.0769C79.5082 23.1727 79.4704 23.2646 79.4026 23.3324C79.3347 23.4001 79.2429 23.4382 79.1475 23.4382H77.5017C77.4063 23.4382 77.3139 23.4001 77.2467 23.3324C77.1782 23.2646 77.1404 23.1727 77.1404 23.0769V10.6237C77.1404 10.3564 77.2125 10.248 77.6248 10.1414C78.8 9.84315 80.0076 9.68674 81.2206 9.67545C84.0997 9.67545 85.4958 11.375 85.4958 14.1655V15.5436C85.5012 18.3341 84.1051 20.0336 81.226 20.0336ZM83.1388 14.1655C83.1388 12.6989 82.7631 11.608 81.226 11.608C80.651 11.6026 80.0766 11.6443 79.5082 11.7326V17.9764C80.0778 18.0519 80.6516 18.0942 81.226 18.1029C82.7631 18.1029 83.1388 17.0192 83.1388 15.5436V14.1655ZM95.3588 15.67H89.5249V15.7224C89.5249 16.7609 89.9552 17.9945 91.6724 17.9945C92.9784 17.9945 94.2124 17.8879 94.9632 17.8139H95.0178C95.1979 17.8139 95.339 17.9042 95.339 18.083V19.2642C95.339 19.5496 95.2867 19.6742 94.9632 19.7284C93.8217 19.9563 92.6579 20.0581 91.4941 20.0318C89.7043 20.0318 87.1595 19.0674 87.1595 15.5418V14.2197C87.1595 11.4292 88.7164 9.67545 91.4539 9.67545C94.192 9.67545 95.7201 11.5592 95.7201 14.2197V15.2221C95.7201 15.5074 95.6084 15.67 95.3588 15.67ZM93.3361 13.9163C93.3361 12.5201 92.5667 11.7146 91.4581 11.7146C90.3489 11.7146 89.5435 12.5021 89.5435 13.9163V13.9867H93.3361V13.9163ZM105.249 19.5694C104.073 19.8662 102.866 20.0221 101.654 20.0336C98.7637 20.0336 97.3784 18.3341 97.3784 15.5436V14.1655C97.3784 11.375 98.7727 9.67545 101.654 9.67545C102.228 9.68079 102.802 9.72305 103.371 9.80191V6.63396C103.371 6.53817 103.409 6.44628 103.476 6.37852C103.545 6.31082 103.636 6.27276 103.732 6.27276H105.377C105.473 6.27276 105.565 6.31082 105.633 6.37852C105.701 6.44628 105.739 6.53817 105.739 6.63396V19.0962C105.733 19.3545 105.654 19.4629 105.249 19.5694ZM103.371 11.7399C102.801 11.6658 102.227 11.6242 101.654 11.6152C100.115 11.6152 99.7384 12.6989 99.7384 14.1727V15.5508C99.7384 17.0174 100.115 18.1101 101.654 18.1101C102.229 18.1159 102.803 18.0736 103.371 17.9837V11.7399ZM110.169 8.45994H108.433C108.336 8.46006 108.243 8.42242 108.173 8.35508C108.103 8.28774 108.062 8.19585 108.058 8.09874V6.52743C108.061 6.43013 108.102 6.33794 108.172 6.27054C108.243 6.20308 108.336 6.16569 108.433 6.16617H110.169C110.265 6.16617 110.357 6.20422 110.425 6.27198C110.492 6.33968 110.531 6.43158 110.531 6.52743V8.10234C110.529 8.19747 110.491 8.28846 110.423 8.35538C110.356 8.42242 110.264 8.45994 110.169 8.45994ZM110.115 19.8909H108.468C108.37 19.8876 108.279 19.8465 108.211 19.7764C108.144 19.7063 108.106 19.6126 108.106 19.5152V10.1595C108.106 10.0637 108.145 9.97183 108.213 9.90413C108.28 9.8363 108.372 9.79831 108.468 9.79831H110.115C110.211 9.79831 110.302 9.8363 110.37 9.90413C110.438 9.97183 110.476 10.0637 110.476 10.1595V19.5152C110.476 19.6126 110.439 19.7063 110.372 19.7764C110.304 19.8465 110.212 19.8876 110.115 19.8909ZM119.971 19.8909H118.45C118.355 19.8909 118.262 19.8529 118.195 19.7851C118.127 19.7174 118.089 19.6255 118.089 19.5297V19.2443C117.336 19.7358 116.46 20.0078 115.56 20.03C114.076 20.03 112.467 19.4592 112.467 17.0427V16.9777C112.467 14.9367 113.718 13.8819 116.832 13.8819H117.959V13.0927C117.959 11.9295 117.441 11.6478 116.384 11.6478C115.411 11.6446 114.438 11.6923 113.469 11.7905H113.379C113.198 11.7905 113.057 11.7362 113.057 11.487V10.3383C113.057 10.1414 113.164 10.015 113.397 9.96265C114.381 9.76932 115.381 9.67317 116.384 9.67545C118.925 9.67545 120.32 10.8025 120.32 13.0927V19.5333C120.319 19.6263 120.282 19.7154 120.217 19.782C120.152 19.8486 120.064 19.8877 119.971 19.8909ZM117.968 15.4551H116.841C115.216 15.4551 114.854 15.9734 114.854 16.9759V17.0463C114.854 17.9241 115.248 18.1552 116.142 18.1552C116.782 18.1407 117.41 17.9689 117.968 17.6549V15.4551ZM14.7913 8.72726L14.3975 8.86993V23.6278L19.1693 20.9692V12.2727L24.4378 10.36L24.8821 10.1974L24.9146 5.06261L14.7913 8.72726ZM18.9995 6.17883L19.3825 6.3179L19.6353 6.41003L24.5479 4.63095L19.7816 2.84651L19.1693 3.07047L14.8003 4.65806L18.6131 6.03971L18.9995 6.17883ZM35.6989 19.909C35.298 19.9844 34.8913 20.0261 34.4834 20.0336C32.4623 20.0336 31.6388 19.5875 31.6388 17.1907V11.5718L29.9573 11.3226C29.8634 11.3166 29.775 11.2767 29.7085 11.2102C29.642 11.1437 29.602 11.0552 29.5961 10.9614V10.1595C29.5961 10.0637 29.6341 9.97183 29.7018 9.90407C29.7696 9.8363 29.8615 9.79825 29.9573 9.79825H31.6388V8.33347C31.6443 8.23948 31.6842 8.15084 31.7508 8.08427C31.8174 8.01771 31.906 7.97786 32 7.97228L33.6635 7.68688H33.7357C33.7726 7.68262 33.8101 7.68652 33.8454 7.69823C33.8807 7.70987 33.9131 7.72908 33.9402 7.75453C33.9674 7.77991 33.9886 7.811 34.0026 7.84546C34.0166 7.87997 34.0229 7.91706 34.0211 7.95421V9.80185H35.6321C35.7279 9.80185 35.8198 9.83991 35.8875 9.90767C35.9553 9.97543 35.9934 10.0673 35.9934 10.1631V11.2179C35.9934 11.3137 35.9553 11.4055 35.8875 11.4733C35.8198 11.541 35.7279 11.5791 35.6321 11.5791H34.0211V17.1907C34.0211 18.0847 34.0752 18.1913 34.72 18.1913H35.6682C35.9012 18.1913 36.0439 18.2817 36.0439 18.4605V19.5875C36.0403 19.7663 35.9374 19.8674 35.6989 19.909ZM45.5389 15.67H39.7069V15.7224C39.7069 16.7609 40.1346 17.9945 41.8543 17.9945C43.1601 17.9945 44.3936 17.8879 45.145 17.8139H45.1991C45.3799 17.8139 45.5205 17.9041 45.5205 18.0829V19.2642C45.5205 19.5496 45.4664 19.6742 45.145 19.7284C44.0024 19.9563 42.8383 20.0581 41.6734 20.0318C39.8854 20.0318 37.3389 19.0673 37.3389 15.5418V14.2197C37.3389 11.4292 38.8956 9.67545 41.6339 9.67545C44.3722 9.67545 45.8963 11.5592 45.8963 14.2197V15.222C45.8963 15.5074 45.7896 15.67 45.5389 15.67ZM43.5232 13.9162C43.5232 12.5201 42.7538 11.7146 41.6446 11.7146C40.5358 11.7146 39.7303 12.502 39.7303 13.9162V13.9867H43.5232V13.9162ZM53.9463 19.8024C53.1885 19.9698 52.4137 20.0474 51.6381 20.0336C49.3119 20.0336 47.558 18.6031 47.558 15.6862V14.0228C47.558 11.1077 49.3119 9.67545 51.6381 9.67545C52.4141 9.66195 53.1888 9.74015 53.9463 9.90845C54.2497 9.98065 54.3218 10.089 54.3218 10.3726V11.5358C54.3218 11.7164 54.179 11.8049 54.0005 11.8049H53.9463C53.1812 11.7051 52.4095 11.6634 51.6381 11.6802C50.7962 11.6802 49.9204 12.1625 49.9204 14.0282V15.6917C49.9204 17.5537 50.7962 18.0396 51.6381 18.0396C52.4095 18.0554 53.1808 18.0138 53.9463 17.915H54.0005C54.181 17.915 54.3218 18.0035 54.3218 18.1823V19.3454C54.3218 19.6236 54.2497 19.7302 53.9463 19.8024ZM64.196 19.8909H62.5509C62.453 19.8876 62.3612 19.8465 62.294 19.7764C62.2262 19.7062 62.189 19.6125 62.1896 19.5152V13.6291C62.1896 12.074 61.9207 11.6802 60.7209 11.6802C60.1143 11.6802 59.3971 11.8952 58.6458 12.2871V19.5116C58.6461 19.6089 58.6089 19.7026 58.5413 19.7728C58.4742 19.8429 58.382 19.884 58.2845 19.8873H56.6393C56.5418 19.884 56.4496 19.8429 56.3824 19.7728C56.3149 19.7026 56.2773 19.6089 56.278 19.5116V6.6339C56.278 6.53811 56.316 6.44628 56.3836 6.37852C56.4516 6.31076 56.5433 6.2727 56.6393 6.2727H58.2845C58.3805 6.2727 58.4722 6.31076 58.5398 6.37852C58.6078 6.44628 58.6458 6.53811 58.6458 6.6339V10.3383C59.3269 9.92651 60.0778 9.67545 61.3547 9.67545C63.8239 9.67545 64.5573 11.4292 64.5573 13.6291V19.5152C64.5579 19.6125 64.5201 19.7062 64.4529 19.7764C64.3851 19.8465 64.2932 19.8876 64.196 19.8909ZM13.2354 8.72726L13.6292 8.86993V23.626L8.85744 20.9692V7.14329L13.2354 8.72726ZM8.08625 6.86504L3.11036 5.06251L3.14287 10.1973L3.58717 10.3599L8.08625 11.9944V6.86504Z" fill="white"/>
</g>
</g>
<defs>
<clipPath id="clip0_2_871">
<rect width="120.039" height="24.0078" fill="white" transform="translate(0.356812)"/>
</clipPath>
</defs>
</svg>
