<svg width="77" height="18" viewBox="0 0 77 18" fill="none" xmlns="http://www.w3.org/2000/svg">
<g clip-path="url(#clip0_2_810)">
<mask id="mask0_2_810" style="mask-type:luminance" maskUnits="userSpaceOnUse" x="0" y="0" width="77" height="19">
<path d="M76.2248 0.000976562H0V18.0068H76.2248V0.000976562Z" fill="white"/>
</mask>
<g mask="url(#mask0_2_810)">
<mask id="mask1_2_810" style="mask-type:luminance" maskUnits="userSpaceOnUse" x="0" y="0" width="77" height="19">
<path d="M76.2248 0.000976562H0V18.0068H76.2248V0.000976562Z" fill="white"/>
</mask>
<g mask="url(#mask1_2_810)">
<mask id="mask2_2_810" style="mask-type:luminance" maskUnits="userSpaceOnUse" x="0" y="0" width="76" height="18">
<path d="M75.9577 0.448303H0V17.5596H75.9577V0.448303Z" fill="white"/>
</mask>
<g mask="url(#mask2_2_810)">
<path d="M12.1668 4.86461H11.7989L11.2001 4.0134C10.1885 2.58687 9.42925 2.12709 7.38258 2.12709H7.10673C6.09517 2.12709 5.40432 2.24263 4.85256 2.35581V8.84239L6.39466 8.79756C8.80913 8.7292 9.24535 8.36134 9.45284 7.00321L9.54479 6.38309H9.95976C9.95976 6.86643 9.91499 8.31422 9.91499 9.16542C9.91499 10.0402 9.95976 11.4643 9.95976 11.9477H9.54479L9.47643 11.5115C9.24535 10.085 8.87749 9.64875 6.39466 9.58039L4.85256 9.53322V13.3271C4.85256 16.2014 5.10486 16.5457 6.57856 16.8003L7.40617 16.937V17.2813C6.96995 17.2813 4.41635 17.2365 3.56515 17.2365C2.71395 17.2365 0.48337 17.2837 0 17.2837V16.9394L0.804046 16.8027C1.93112 16.6188 2.13862 16.0434 2.13862 13.3295V5.46116C2.13862 2.74721 1.93112 2.17189 0.804046 1.98797L0 1.85121V1.50696C0.48337 1.50696 3.51799 1.55412 4.36919 1.55412C5.2204 1.55412 9.12981 1.53054 9.58956 1.53054H11.4759L12.1668 4.86461Z" fill="white"/>
<path d="M18.2833 17.2837C17.7315 17.2837 16.4653 17.2602 15.4774 17.2602C14.4659 17.2602 13.1077 17.2837 12.5795 17.2837V16.9395L13.0157 16.8711C13.9589 16.732 14.1428 16.3878 14.1428 14.1807V9.39424C14.1428 8.19877 13.9589 7.85216 13.1313 7.4843L12.556 7.23203V6.95612L16.397 6.12851L16.6964 6.31241V14.1784C16.6964 16.3854 16.8803 16.7085 17.8471 16.8688L18.2833 16.9371V17.2837ZM15.2015 4.24218C14.282 4.24218 13.5911 3.59847 13.5911 2.72369C13.5911 1.87249 14.282 1.2052 15.2015 1.2052C16.1447 1.2052 16.8355 1.87249 16.8355 2.72369C16.8332 3.59847 16.1447 4.24218 15.2015 4.24218Z" fill="white"/>
<path d="M31.5295 17.2838C31.0225 17.2838 29.7115 17.2602 28.7236 17.2602C27.7569 17.2602 26.4459 17.2838 25.8941 17.2838V16.9395L26.262 16.8711C27.2499 16.6872 27.4338 16.3878 27.4338 14.3647V10.0167C27.4338 8.33792 26.6981 7.51025 25.4107 7.51025C24.5147 7.51025 23.7555 7.85452 23.0882 8.36144V14.3647C23.0882 16.3878 23.2486 16.6872 24.2601 16.8711L24.6279 16.9395V17.2838C24.0762 17.2838 22.7888 17.2602 21.7984 17.2602C20.8081 17.2602 19.4995 17.2838 18.9689 17.2838V16.9395L19.4052 16.8711C20.3247 16.732 20.5087 16.3878 20.5087 14.1808V9.37067C20.5087 8.1752 20.3012 7.85218 19.4971 7.46073L18.9453 7.18488V6.93256L22.7864 6.08136L23.0859 6.28885V7.83093C24.3049 6.79583 25.432 6.10495 26.8585 6.10495C28.9052 6.10495 30.0086 7.20847 30.0086 9.53098V14.1761C30.0086 16.4302 30.1926 16.7061 31.1357 16.8665L31.5271 16.9348V17.2838H31.5295Z" fill="white"/>
<path d="M37.6462 17.3757C36.3117 17.3757 35.1398 17.0526 34.3334 16.7084L33.4138 17.5596H33.1379V3.73758C33.1379 2.54212 32.9304 2.19787 32.15 1.82768L31.5746 1.5518V1.29951L35.4133 0.448303L35.7127 0.655797V7.67055C36.7007 6.72741 37.5755 6.10728 39.094 6.10728C41.7608 6.10728 43.5551 8.2459 43.5551 11.1673C43.5551 15.0744 41.0487 17.3757 37.6462 17.3757ZM37.5755 7.53143C36.7927 7.53143 36.3117 7.71533 35.7127 8.15155V13.6243C35.7127 15.7629 36.7007 16.7744 38.1744 16.7744C39.9688 16.7744 41.0958 15.3479 41.0958 12.6575C41.0958 9.57809 39.6693 7.53143 37.5755 7.53143Z" fill="white"/>
<path d="M50.6151 17.5124C47.4178 17.5124 45.0504 15.4893 45.0504 11.6931C45.0504 8.4958 47.3493 6.0365 50.6387 6.0365C53.8124 6.0365 56.2033 8.05958 56.2033 11.8558C56.2033 15.0531 53.8807 17.5124 50.6151 17.5124ZM50.3156 6.61185C48.7523 6.61185 47.8539 7.80732 47.8539 11.0494C47.8539 14.6146 49.0046 16.9371 50.9122 16.9371C52.499 16.9371 53.3738 15.7417 53.3738 12.4995C53.3761 8.93436 52.2491 6.61185 50.3156 6.61185Z" fill="white"/>
<path d="M62.9186 17.2837C62.3904 17.2837 61.124 17.2601 60.1361 17.2601C59.1244 17.2601 57.7662 17.2837 57.238 17.2837V16.9395L57.6743 16.8711C58.5939 16.7319 58.7778 16.3877 58.7778 14.1807V3.73758C58.7778 2.54212 58.5703 2.19787 57.7898 1.82768L57.2144 1.5518V1.29951L61.0556 0.448303L61.3551 0.655797V14.1784C61.3551 16.3853 61.5387 16.7319 62.4822 16.8687L62.9186 16.9371V17.2837Z" fill="white"/>
<path d="M75.9577 17.2837C75.0142 17.2837 73.015 17.2837 72.0481 17.3309L71.8404 15.8831C70.8525 16.8263 70.0014 17.4464 68.4829 17.4464C65.8162 17.4464 63.9982 15.3078 63.9982 12.3863C63.9982 8.47698 66.5046 6.17565 69.9306 6.17565C70.6664 6.17565 71.3338 6.24401 71.8404 6.35955V3.82954C71.8404 2.63408 71.5883 2.24267 70.7372 1.82768L70.185 1.5518V1.29951L74.1181 0.448303L74.4176 0.655797V14.1784C74.4176 16.4325 74.6019 16.7084 75.5682 16.8687L75.9595 16.9371V17.2837H75.9577ZM71.8404 9.92471C71.8404 7.78609 70.8741 6.75093 69.4024 6.75093C67.6084 6.75093 66.4812 8.19872 66.4812 10.8914C66.4812 13.9732 67.9073 16.0199 69.999 16.0199C70.7582 16.0199 71.263 15.836 71.838 15.3998V9.92471H71.8404Z" fill="white"/>
</g>
</g>
</g>
</g>
<defs>
<clipPath id="clip0_2_810">
<rect width="76.2248" height="18.0059" fill="white" transform="translate(0 0.000976562)"/>
</clipPath>
</defs>
</svg>
