<svg width="40" height="41" viewBox="0 0 40 41" fill="none" xmlns="http://www.w3.org/2000/svg">
<rect y="0.939453" width="40" height="40" rx="20" fill="white"/>
<path d="M14.4622 22.031L9.80916 20.5149C9.80916 20.5149 9.25307 20.2893 9.43213 19.7777C9.46899 19.6722 9.54335 19.5824 9.76579 19.4282C10.7968 18.7095 28.8486 12.2212 28.8486 12.2212C28.8486 12.2212 29.3583 12.0495 29.6589 12.1637C29.7332 12.1867 29.8002 12.2291 29.8528 12.2865C29.9054 12.3438 29.9418 12.4142 29.9584 12.4902C29.9909 12.6246 30.0044 12.7628 29.9987 12.9009C29.9973 13.0204 29.9828 13.1312 29.9719 13.3048C29.8619 15.0787 26.5718 28.3181 26.5718 28.3181C26.5718 28.3181 26.3749 29.0929 25.6696 29.1194C25.4963 29.125 25.3237 29.0956 25.1619 29.0331C25.0002 28.9705 24.8527 28.876 24.7283 28.7552C23.3442 27.5647 18.5606 24.3499 17.5035 23.6429C17.4797 23.6266 17.4596 23.6054 17.4447 23.5808C17.4297 23.5561 17.4202 23.5285 17.4168 23.4999C17.402 23.4253 17.483 23.333 17.483 23.333C17.483 23.333 25.8126 15.9291 26.0343 15.1518C26.0514 15.0916 25.9866 15.0619 25.8996 15.0883C25.3463 15.2918 15.7558 21.3483 14.6974 22.0167C14.6212 22.0397 14.5406 22.0446 14.4622 22.031Z" fill="#9C106C"/>
</svg>
