<svg width="40" height="41" viewBox="0 0 40 41" fill="none" xmlns="http://www.w3.org/2000/svg">
<path d="M40 20.168C40 9.12227 31.0457 0.167969 20 0.167969C8.9543 0.167969 0 9.12227 0 20.168C0 31.2137 8.9543 40.168 20 40.168C31.0457 40.168 40 31.2137 40 20.168Z" fill="#9C106C"/>
<path d="M14.4621 21.258L9.80904 19.742C9.80904 19.742 9.25295 19.5164 9.43201 19.0048C9.46887 18.8993 9.54323 18.8095 9.76567 18.6552C10.7967 17.9366 28.8485 11.4483 28.8485 11.4483C28.8485 11.4483 29.3582 11.2765 29.6588 11.3908C29.7331 11.4138 29.8001 11.4562 29.8527 11.5135C29.9053 11.5709 29.9417 11.6412 29.9583 11.7173C29.9908 11.8517 30.0043 11.9899 29.9986 12.128C29.9972 12.2475 29.9827 12.3582 29.9718 12.5319C29.8618 14.3058 26.5717 27.5452 26.5717 27.5452C26.5717 27.5452 26.3748 28.3199 25.6695 28.3465C25.4962 28.3521 25.3236 28.3227 25.1618 28.2601C25.0001 28.1976 24.8526 28.1031 24.7282 27.9823C23.3441 26.7918 18.5605 23.5769 17.5034 22.8699C17.4796 22.8537 17.4595 22.8325 17.4446 22.8078C17.4296 22.7832 17.4201 22.7556 17.4167 22.7269C17.4019 22.6524 17.4829 22.5601 17.4829 22.5601C17.4829 22.5601 25.8125 15.1562 26.0342 14.3789C26.0513 14.3187 25.9865 14.289 25.8995 14.3153C25.3462 14.5189 15.7557 20.5753 14.6973 21.2438C14.6211 21.2668 14.5405 21.2717 14.4621 21.258Z" fill="white"/>
</svg>
