<svg width="40" height="41" viewBox="0 0 40 41" fill="none" xmlns="http://www.w3.org/2000/svg">
<path d="M40 20.168C40 9.12227 31.0457 0.167969 20 0.167969C8.9543 0.167969 0 9.12227 0 20.168C0 31.2137 8.9543 40.168 20 40.168C31.0457 40.168 40 31.2137 40 20.168Z" fill="#9C106C"/>
<mask id="mask0_205_220" style="mask-type:luminance" maskUnits="userSpaceOnUse" x="12" y="11" width="16" height="17">
<path d="M28 11.4883H12V27.8483H28V11.4883Z" fill="white"/>
</mask>
<g mask="url(#mask0_205_220)">
<path d="M21.5222 18.4121L27.4785 11.4883H26.0671L20.8952 17.5002L16.7644 11.4883H12L18.2466 20.5793L12 27.8399H13.4115L18.8732 21.4913L23.2356 27.8399H28L21.5222 18.4121ZM19.5889 20.6594L18.956 19.7541L13.9201 12.5509H16.0882L20.1522 18.3641L20.7851 19.2694L26.0677 26.8257H23.8997L19.5889 20.6594Z" fill="white"/>
</g>
</svg>
